<svg width="28" height="28" viewBox="0 0 28 28" fill="none" xmlns="http://www.w3.org/2000/svg">
<path d="M26.4798 21.219C25.8493 20.5733 24.4276 19.442 22.0387 17.7074C21.495 17.3126 20.7473 17.3685 20.265 17.8369L19.4005 18.6767C17.1056 20.9815 14.5882 20.4227 10.8747 16.6932C7.14728 12.9636 6.59095 10.4493 8.88583 8.14452L9.71747 7.28097C10.1859 6.79456 10.2399 6.03981 9.84219 5.49359C8.15663 3.17884 6.99122 1.70362 6.32669 1.04858C5.93725 0.657462 5.06103 0.727304 4.74114 1.04858L2.72443 3.074C-0.460573 6.25879 0.582551 13.3128 7.39763 20.1434C14.2266 26.9739 21.2781 28.0216 24.491 24.8088C25.2976 24.0266 25.9652 23.3701 26.4659 22.8393C26.8415 22.4482 26.8971 21.652 26.4798 21.219Z" stroke="black" stroke-miterlimit="10"/>
</svg>
