<svg width="21" height="31" viewBox="0 0 21 31" fill="none" xmlns="http://www.w3.org/2000/svg">
<path fill-rule="evenodd" clip-rule="evenodd" d="M1 10.6589C1 5.31142 5.35526 0.981934 10.7156 0.981934C16.0759 0.981934 20.4311 5.32431 20.4311 10.6589C20.4311 16.2382 14.8389 24.5751 10.7156 29.7807C6.66957 24.6137 1 16.1738 1 10.6589ZM6.82419 10.6589C6.82419 8.51988 8.56372 6.78035 10.7156 6.78035C12.1072 6.78035 13.3828 7.51482 14.0787 8.71316C14.7745 9.9115 14.7745 11.3933 14.0787 12.5917C13.3828 13.79 12.1072 14.5245 10.7156 14.5245C8.56372 14.5374 6.82419 12.7978 6.82419 10.6589Z" stroke="black" stroke-miterlimit="10"/>
</svg>
